<?xml version="1.0" encoding="UTF-8" standalone="no"?>
<!-- Created with Inkscape (http://www.inkscape.org/) -->

<svg
   xmlns:dc="http://purl.org/dc/elements/1.1/"
   xmlns:cc="http://creativecommons.org/ns#"
   xmlns:rdf="http://www.w3.org/1999/02/22-rdf-syntax-ns#"
   xmlns:svg="http://www.w3.org/2000/svg"
   xmlns="http://www.w3.org/2000/svg"
   xmlns:sodipodi="http://sodipodi.sourceforge.net/DTD/sodipodi-0.dtd"
   xmlns:inkscape="http://www.inkscape.org/namespaces/inkscape"
   width="600"
   height="600"
   viewBox="0 0 600.00001 600.00001"
   id="svg2"
   version="1.1"
   inkscape:version="0.91 r13725"
   inkscape:export-filename="C:\Users\eduardo.mazolini\Documents\Projetos\fakeComment\FakeComment\images\get_started16.png"
   inkscape:export-xdpi="2.4000001"
   inkscape:export-ydpi="2.4000001"
   sodipodi:docname="icon.svg">
  <defs
     id="defs4" />
  <sodipodi:namedview
     id="base"
     pagecolor="#ffffff"
     bordercolor="#666666"
     borderopacity="1.0"
     inkscape:pageopacity="0.0"
     inkscape:pageshadow="2"
     inkscape:zoom="0.35"
     inkscape:cx="-507.52531"
     inkscape:cy="666.8984"
     inkscape:document-units="px"
     inkscape:current-layer="layer1"
     showgrid="false"
     inkscape:window-width="1291"
     inkscape:window-height="745"
     inkscape:window-x="67"
     inkscape:window-y="-8"
     inkscape:window-maximized="1"
     units="px" />
  <metadata
     id="metadata7">
    <rdf:RDF>
      <cc:Work
         rdf:about="">
        <dc:format>image/svg+xml</dc:format>
        <dc:type
           rdf:resource="http://purl.org/dc/dcmitype/StillImage" />
        <dc:title></dc:title>
      </cc:Work>
    </rdf:RDF>
  </metadata>
  <g
     inkscape:label="Camada 1"
     inkscape:groupmode="layer"
     id="layer1"
     transform="translate(0,-452.36216)">
    <g
       id="g3819"
       transform="matrix(2.9138235,0,0,2.9138235,-911.54118,-914.87591)"
       inkscape:export-xdpi="18.402559"
       inkscape:export-ydpi="18.402559">
      <path
         inkscape:connector-curvature="0"
         id="path3395"
         d="m 421.18249,673.48988 c -0.74754,-0.90173 -1.52214,-2.44306 -1.72135,-3.42518 -3.0781,-15.17408 -5.77435,-30.65674 -5.62215,-32.28404 0.10625,-1.13594 -0.62439,-5.09077 -1.62363,-8.78849 -3.28082,-12.14077 -6.11026,-26.64539 -5.81454,-29.80719 0.15968,-1.70735 -0.61429,-5.28396 -1.71997,-7.9479 -2.14247,-5.16195 -5.56879,-20.76753 -7.10358,-32.3541 -0.51247,-3.86864 -1.44483,-8.30373 -2.07192,-9.85577 -0.62709,-1.55204 -1.57404,-6.19791 -2.1043,-10.32422 -0.53027,-4.12632 -1.2796,-7.98376 -1.66516,-8.57222 -0.38556,-0.58846 -1.4806,-5.33456 -2.43344,-10.54694 -1.88759,-10.32566 -1.19951,-13.39552 2.91619,-13.01058 1.97199,0.18444 7.76468,-0.97145 24.40712,-4.8705 3.16426,-0.74136 6.60299,-1.26531 7.64163,-1.16435 1.79667,0.17809 5.85888,6.05561 5.65894,8.19328 -0.0519,0.55518 0.96653,2.20439 2.26325,3.66479 1.29671,1.4605 3.9842,5.74529 5.97218,9.52193 1.98799,3.77654 4.73781,8.95271 6.11071,11.50254 5.01588,9.31607 6.87787,13.39871 7.26834,15.9368 0.36669,2.3835 7.74273,10.80618 7.87775,8.99559 0.0329,-0.43724 -0.7188,-4.48352 -1.66979,-8.99167 -0.95099,-4.50815 -1.58131,-9.77714 -1.40071,-11.70882 0.18059,-1.93177 -0.26632,-4.5563 -0.99316,-5.83233 -2.22656,-3.90913 -3.64069,-10.91305 -3.14738,-15.58864 0.32672,-3.09694 -0.0629,-5.12935 -1.28471,-6.70066 -1.99612,-2.56704 -4.05384,-11.42746 -3.10094,-13.35239 0.85509,-1.72727 6.07917,-2.91937 10.84197,-2.47391 2.14382,0.20051 6.45143,-0.52651 9.57246,-1.6156 3.12104,-1.08909 6.24379,-1.92693 6.93947,-1.86186 0.69566,0.0651 1.72683,-0.2306 2.29151,-0.65717 1.78495,-1.34834 7.26099,-1.41448 8.34986,-0.10097 0.56877,0.68615 0.83949,3.32874 0.60158,5.87243 -0.3023,3.2322 0.0742,5.17761 1.25035,6.46061 1.91343,2.08726 3.07353,7.16536 3.31498,14.51056 0.173,5.26318 2.51514,15.86879 4.30316,19.48551 1.14988,2.32588 4.7983,21.23892 5.327,27.61466 0.1846,2.22606 1.12697,6.60786 2.09414,9.73732 0.96719,3.12937 2.91312,11.44742 4.3243,18.48441 1.41118,7.037 3.61121,17.67158 4.88893,23.63247 1.27774,5.96089 2.37398,12.6169 2.43608,14.79113 0.0621,2.17423 1.19105,7.58517 2.50872,12.02437 1.39861,4.71192 2.14624,9.35973 1.79623,11.16699 -0.56243,2.90415 -1.01068,3.17016 -7.24025,4.29694 -3.65241,0.66075 -10.09922,1.93645 -14.32626,2.83502 -16.59064,3.52675 -16.51914,3.51767 -18.10439,2.29744 -2.23962,-1.72385 -7.74985,-13.10132 -8.18414,-16.89836 -0.20536,-1.79573 -1.10507,-3.57474 -1.99932,-3.95346 -1.90272,-0.80579 -6.59275,-9.20544 -10.01326,-17.93339 -1.32341,-3.37682 -3.2187,-7.16979 -4.21177,-8.42884 -0.99308,-1.25905 -2.64665,-3.72284 -3.6746,-5.47518 -1.02795,-1.75235 -2.0956,-2.98211 -2.37256,-2.73282 -0.53613,0.48257 1.37271,11.41654 4.86931,27.89175 2.29422,10.80981 3.63449,18.70172 4.51917,26.61057 0.70954,6.34283 -0.0751,7.01478 -9.972,8.53928 -4.19991,0.6469 -11.02216,2.05592 -15.16054,3.13101 -8.72696,2.26717 -9.77552,2.27265 -11.60951,0.0601 z"
         style="fill:#fcd0d0" />
      <path
         inkscape:connector-curvature="0"
         id="path3817"
         d="m 416.08009,662.3551 c -0.38228,-2.22999 -1.77533,-9.25271 -3.09565,-15.60607 -1.32033,-6.35326 -2.2887,-12.76269 -2.15193,-14.24298 0.13644,-1.48033 -0.13796,-3.9918 -0.61049,-5.58111 -0.47254,-1.58931 -1.12665,-3.81851 -1.45356,-4.95388 -1.92826,-6.69677 -5.57908,-26.0641 -5.35362,-28.40056 0.14629,-1.52109 -0.81517,-5.5208 -2.13765,-8.88829 -2.39009,-6.08582 -6.24346,-24.15487 -7.00906,-32.86632 -0.22027,-2.5064 -1.09038,-6.67796 -1.93359,-9.27014 -0.84322,-2.59209 -1.62576,-7.18492 -1.73899,-10.20629 -0.11325,-3.02128 -0.72475,-6.51089 -1.35889,-7.75465 -1.75342,-3.43912 -4.13051,-14.3739 -3.82794,-17.60885 0.2527,-2.70184 0.67352,-2.93981 7.15804,-4.04774 3.78925,-0.64744 7.59044,-1.42242 8.44708,-1.7222 0.85664,-0.29978 4.70204,-1.24122 8.54534,-2.0921 l 6.98781,-1.54705 2.1952,2.50929 c 1.20737,1.38011 2.16574,2.90796 2.1297,3.39521 -0.0355,0.4873 1.54483,2.99782 3.51301,5.57904 1.96819,2.58121 3.53765,5.26432 3.48769,5.96251 -0.0499,0.69818 1.11864,2.7008 2.59687,4.45016 1.47823,1.74946 2.6373,3.71966 2.5757,4.37829 -0.0616,0.65862 1.41363,3.54605 3.27831,6.41646 1.86466,2.87052 4.4664,8.25751 5.78162,11.97112 1.43843,4.0615 3.56388,7.78682 5.33395,9.34904 1.61846,1.42833 3.71619,4.65831 4.6616,7.1778 1.72724,4.60274 3.81632,6.61975 5.45205,5.26378 0.87529,-0.72554 0.44744,-4.64863 -1.46718,-13.45248 -1.8294,-8.41212 -2.91433,-16.40137 -2.63413,-19.39729 0.15213,-1.6265 -0.83195,-5.60181 -2.18685,-8.83403 -1.84366,-4.3983 -2.33967,-7.20007 -1.97151,-11.13637 0.38885,-4.15758 0.0284,-5.92813 -1.72054,-8.45053 -1.21685,-1.75505 -2.14242,-3.93984 -2.05681,-4.85511 0.0856,-0.91526 -0.2188,-2.55437 -0.67646,-3.64247 -1.13335,-2.6946 1.05106,-3.45935 9.76823,-3.41986 3.80698,0.0172 7.69782,-0.50832 8.64633,-1.16791 2.08648,-1.45094 10.39873,-3.74149 12.77208,-3.51951 1.32592,0.12401 1.62683,1.03958 1.34211,4.0837 -0.20185,2.15812 0.10298,4.27881 0.67741,4.71261 1.65799,1.25215 3.79355,8.86721 4.02923,14.36762 0.28378,6.6232 2.71768,18.93792 4.14596,20.97728 1.08841,1.55401 4.22498,17.09402 5.78531,28.6633 0.41499,3.07702 1.58912,8.03339 2.60916,11.01413 1.02003,2.98084 2.01717,6.68982 2.21585,8.24217 0.3874,3.02682 3.27819,18.21593 4.43269,23.29069 2.85611,12.55412 4.71263,23.21824 4.16769,23.93983 -0.3565,0.47206 -0.0532,2.63982 0.67397,4.8173 0.72718,2.17748 1.94979,5.82558 2.7169,8.10693 0.76712,2.28135 1.41187,5.44625 1.43277,7.03319 0.0347,2.63076 -0.36831,2.9682 -4.56961,3.82589 -2.53419,0.51735 -5.81392,0.83461 -7.28831,0.70515 -1.47454,-0.12787 -2.99952,0.18669 -3.38918,0.70264 -0.38966,0.51596 -1.81999,0.83415 -3.17852,0.70708 -1.35852,-0.12706 -4.21049,0.44896 -6.33773,1.28018 -5.41495,2.11574 -10.96374,2.47658 -12.06333,0.78453 -2.0034,-3.08286 -5.52172,-12.04092 -5.8434,-14.8781 -0.18991,-1.67497 -1.22341,-3.53951 -2.29666,-4.14348 -1.07326,-0.60387 -2.59482,-2.32805 -3.38125,-3.83152 -4.93849,-9.44091 -8.12154,-16.64634 -8.00141,-18.11252 0.0763,-0.93215 -0.45921,-2.11214 -1.19017,-2.62223 -1.41927,-0.99057 -8.21081,-11.32352 -12.26895,-18.66654 -2.04296,-3.69671 -2.63778,-4.19255 -3.5104,-2.92651 -0.70437,1.02195 -0.53874,3.3291 0.50254,7.00001 1.6575,5.84345 6.73991,31.69266 7.4202,37.73929 0.22467,1.997 0.70313,4.22514 1.06325,4.95143 0.75752,1.52778 2.32197,10.89889 2.87711,17.23401 0.3305,3.77167 0.0878,4.52082 -1.81605,5.60524 -1.20864,0.68842 -3.37511,1.14154 -4.81437,1.00693 -2.74979,-0.25719 -7.48202,0.60156 -12.69646,2.30408 -3.95784,1.29225 -10.08839,2.59541 -11.56155,2.45763 -0.62453,-0.0584 -1.44828,-1.93086 -1.83056,-4.16085 z"
         style="fill:#00ff00" />
    </g>
    <g
       id="g3823"
       transform="matrix(2.9138285,0,0,2.9138285,-635.1375,-631.83639)"
       inkscape:export-xdpi="18.402559"
       inkscape:export-ydpi="18.402559">
      <path
         inkscape:connector-curvature="0"
         id="path3385"
         d="m 254.14694,553.2526 c -0.25468,-0.51365 -1.30827,-6.44574 -2.34129,-13.18241 -1.03303,-6.73667 -2.79497,-14.52308 -3.91543,-17.3031 -1.12047,-2.78003 -2.27579,-7.78868 -2.56737,-11.13035 -0.29159,-3.34168 -0.89685,-6.61687 -1.34504,-7.27818 -0.92181,-1.36036 -2.2544,-8.2523 -3.33813,-17.26458 -0.4031,-3.3521 -1.38262,-7.79493 -2.17673,-9.87291 -1.50682,-3.94315 -5.02931,-21.60553 -6.4035,-32.10849 -0.43903,-3.35546 -1.65945,-9.57112 -2.71206,-13.81257 -3.59936,-14.50352 -8.10081,-36.40881 -8.34248,-40.59675 l -0.24144,-4.18411 8.04976,-1.79566 c 9.34602,-2.08481 21.61524,-4.1579 27.35025,-4.62128 2.20053,-0.1778 5.66553,-0.98255 7.7,-1.78834 4.44846,-1.76189 27.63434,-6.48465 30.5136,-6.21535 1.6593,0.15519 2.29427,1.48132 3.39825,7.09729 3.24858,16.52559 3.24731,16.58664 -0.48251,23.1757 -3.70473,6.54475 -5.11265,7.41375 -16.46867,10.16492 -3.68931,0.8938 -6.68824,2.01856 -6.66427,2.49946 0.0638,1.27904 5.2279,25.40572 5.52612,25.81777 0.13913,0.19224 5.68307,-0.73962 12.31986,-2.07081 8.41618,-1.68808 12.4066,-2.08023 13.18973,-1.29618 0.61756,0.61828 1.77377,4.43662 2.56935,8.4852 0.79558,4.04858 2.05338,10.31868 2.7951,13.93366 2.12326,10.34779 2.01301,10.57722 -5.98014,12.44539 -3.81202,0.89089 -9.23138,2.05397 -12.04301,2.58455 -8.25448,1.55769 -7.91423,1.30749 -6.5089,4.78557 0.68853,1.70412 1.16045,4.07588 1.04872,5.27056 -0.11173,1.19459 0.5625,3.71623 1.4983,5.60358 0.9358,1.88724 1.8148,6.54243 1.95333,10.34485 0.13852,3.80242 0.86715,8.7788 1.61916,11.05874 0.75202,2.27993 1.7356,6.4396 2.18572,9.2437 0.45013,2.80411 1.67775,8.34249 2.72806,12.30753 2.83315,10.69561 2.36999,11.71451 -6.27618,13.80764 -10.21996,2.47404 -33.40433,7.08799 -34.909,6.94726 -0.69634,-0.0651 -1.47446,-0.53865 -1.72916,-1.0523 z"
         style="fill:#fcd0d0" />
      <path
         inkscape:connector-curvature="0"
         id="path3555"
         d="m 250.32339,546.70466 c -0.21832,-0.98712 -0.69278,-2.95234 -1.05435,-4.36716 -0.36158,-1.41482 -1.0311,-5.99708 -1.48783,-10.1828 -0.45673,-4.18572 -1.68377,-9.95004 -2.72677,-12.80959 -1.043,-2.85955 -2.01429,-6.56611 -2.15841,-8.23679 -0.56657,-6.56794 -1.12966,-9.21011 -2.3157,-10.86587 -0.67984,-0.94909 -1.48081,-4.41374 -1.77994,-7.69921 -0.29912,-3.28548 -1.35528,-9.43921 -2.34701,-13.67497 -4.75717,-20.31813 -6.53113,-28.8085 -7.42688,-35.54591 -0.53543,-4.02727 -1.80055,-10.69908 -2.81136,-14.82623 -3.16434,-12.9201 -7.79838,-35.01825 -8.14944,-38.86192 -0.27238,-2.98224 0.0115,-3.78251 1.49492,-4.21437 3.4244,-0.99694 18.16536,-3.64467 25.81757,-4.63727 4.19388,-0.54401 10.18727,-1.80414 13.31865,-2.80029 3.13137,-0.99615 8.90054,-2.27516 12.82038,-2.84225 3.91985,-0.56707 8.65631,-1.5133 10.52548,-2.10273 5.16428,-1.6285 5.72011,-1.26358 7.06484,4.63836 1.50402,6.60108 1.49452,6.82503 -0.28243,6.65883 -1.87841,-0.17569 -6.05947,4.05309 -8.83237,8.93319 -2.32467,4.09123 -2.6812,11.0816 -0.57525,11.27857 2.81185,0.26299 -0.99035,1.92983 -5.8027,2.54384 -6.73173,0.8589 -7.81043,1.36193 -8.10306,3.77867 -0.4081,3.37005 0.0797,8.39579 0.94906,9.77866 0.46571,0.74082 1.37958,4.10856 2.03082,7.48387 0.65124,3.37531 1.40632,7.25534 1.67797,8.62228 0.94224,4.74151 2.668,4.99353 15.10759,2.2063 6.37981,-1.42947 11.87808,-2.24543 12.21837,-1.81323 0.34029,0.43218 1.42487,5.15485 2.4102,10.49481 0.98532,5.33996 2.12669,11.42099 2.53636,13.51341 0.40967,2.0924 0.4635,4.03761 0.1196,4.32268 -0.34389,0.28506 -2.38577,0.62144 -4.5375,0.7475 -2.15173,0.12606 -4.69627,0.78908 -5.65453,1.47336 -0.95826,0.6843 -4.64858,1.48204 -8.20072,1.77277 -3.55214,0.29072 -6.88037,0.83122 -7.39608,1.20112 -0.52104,0.37371 -0.4174,2.84408 0.23325,5.56 0.64399,2.68811 1.07924,5.86735 0.96723,7.06497 -0.11201,1.19762 0.53411,3.32437 1.43581,4.7261 2.74248,4.26326 3.37536,17.88746 0.89593,19.28679 -0.67096,0.37867 -0.43618,0.70328 0.58436,0.80793 2.23365,0.2291 3.3789,3.13604 4.69863,11.92674 0.59535,3.96554 1.99389,9.89868 3.10788,13.18474 l 2.02542,5.97465 -2.32143,1.20172 c -2.08383,1.07874 -34.91797,8.35179 -36.87691,8.16857 -0.44149,-0.0413 -0.98133,-0.88272 -1.19965,-1.86984 z"
         style="fill:#0000ff" />
    </g>
  </g>
</svg>
